<?xml version="1.0" encoding="utf-8"?>
<!-- Generator: Adobe Illustrator 19.1.0, SVG Export Plug-In . SVG Version: 6.00 Build 0)  -->
<svg version="1.1" id="Layer_1" xmlns="http://www.w3.org/2000/svg" xmlns:xlink="http://www.w3.org/1999/xlink" x="0px" y="0px"
	 viewBox="0 0 156.7 58.3" style="enable-background:new 0 0 156.7 58.3;" xml:space="preserve">
<style type="text/css">
	.st0{fill:#540000;}
	.st1{fill-rule:evenodd;clip-rule:evenodd;fill:#540000;}
</style>
<g>
	<path class="st0" d="M146.8,0c-5.4,0-9.8,4.4-9.8,9.8c0,5.4,4.4,9.8,9.8,9.8c5.4,0,9.8-4.4,9.8-9.8C156.7,4.4,152.3,0,146.8,0z
		 M146.8,15.1c-2.9,0-5.3-2.4-5.3-5.3c0-2.9,2.4-5.3,5.3-5.3c2.9,0,5.3,2.4,5.3,5.3C152.1,12.8,149.8,15.1,146.8,15.1z"/>
	<g>
		<g>
			<path class="st1" d="M0,6.8c7.3,0,14.7,0,22,0c3.7,0,7.2,0.5,10.6,2c6.2,2.7,9.9,7.6,11.8,14c1.1,4,1.4,8.1,1.1,12.2
				c-0.3,3.9-1.1,7.7-2.8,11.3c-3,6.2-7.9,10-14.7,11.4c-1.9,0.4-3.8,0.5-5.8,0.5c-7.4,0.1-14.8,0-22.3,0C0,41.1,0,23.9,0,6.8z
				 M11.4,48.7c0.2,0,0.3,0,0.5,0c3.4,0,6.7,0,10.1,0c0.8,0,1.6-0.1,2.4-0.3c4.7-1,7.6-3.9,8.9-8.4c1.4-4.5,1.2-9.1,0.2-13.6
				c-0.6-2.6-1.7-4.9-3.6-6.7c-2.6-2.4-5.7-3.2-9.1-3.3c-2.9-0.1-5.9,0-8.9-0.1c-0.2,0-0.3,0-0.5,0C11.4,27.2,11.4,37.9,11.4,48.7z"
				/>
			<path class="st1" d="M95.6,6.8c0.3,0,0.5,0,0.8,0c7.8,0,15.5,0,23.3,0c3.3,0,6.6,0.3,9.8,1.6c4.1,1.7,6.2,4.8,6.7,9.1
				c0.3,2.6,0.1,5.1-1.1,7.5c-1.1,2.2-2.8,3.7-4.9,4.9c-0.2,0.1-0.4,0.2-0.6,0.3c0,0,0,0.1,0,0.1c1,0.5,2.1,0.9,3,1.4
				c3.4,2,5.3,5,5.9,8.8c0.5,2.9,0.3,5.7-0.8,8.4c-1.6,3.9-4.6,6.4-8.4,7.9c-2.6,1-5.2,1.5-8,1.5c-8.3,0-16.6,0-24.9,0
				c-0.2,0-0.5,0-0.8,0C95.6,41.1,95.6,24,95.6,6.8z M107,35.4c0,4.7,0,9.4,0,14c0.3,0,0.5,0,0.8,0c3.9,0,7.7,0,11.6,0
				c1,0,1.9-0.1,2.9-0.3c2.4-0.5,4.3-1.8,4.9-4.3c0.2-1.1,0.3-2.2,0.2-3.3c-0.2-2.7-1.6-4.7-4.2-5.5c-1-0.3-2.2-0.5-3.3-0.6
				c-4.1-0.1-8.1,0-12.2,0C107.4,35.4,107.2,35.4,107,35.4z M107,27.6c0.1,0,0.2,0,0.2,0c3.9,0,7.8,0.1,11.7,0
				c3.6-0.1,6.2-1.8,6.4-5.7c0.1-2.6-0.7-4.8-3.6-5.7c-1.2-0.4-2.5-0.5-3.8-0.6c-3.4-0.1-6.8,0-10.2,0c-0.2,0-0.5,0-0.7,0
				C107,19.7,107,23.6,107,27.6z"/>
			<path class="st1" d="M47.8,58.3c0-17.2,0-34.3,0-51.5c0.3,0,0.5,0,0.7,0c7.1,0,14.2,0,21.3,0c4.2,0,8.2,0.7,12,2.7
				c5.4,2.8,8.6,7.4,10.3,13.1c0.8,2.8,1.2,5.6,1.3,8.5c0.1,4.7-0.4,9.3-2.1,13.7c-3.1,7.7-8.8,12.2-17.1,13.3
				c-1.3,0.2-2.5,0.3-3.8,0.3c-7.2,0-14.4,0-21.7,0C48.4,58.3,48.1,58.3,47.8,58.3z M59.2,16.4c0,0.2,0,0.4,0,0.5
				c0,10.4,0,20.8,0,31.2c0,0.6,0.2,0.6,0.7,0.6c3.3,0,6.6,0,9.8,0c0.5,0,1.1,0,1.6-0.1c5-0.8,8.3-3.6,9.8-8.4
				c1.5-4.9,1.3-9.8,0-14.7c-0.6-2.5-1.8-4.6-3.8-6.3c-2.6-2.1-5.6-2.8-8.8-2.9c-2.9-0.1-5.7,0-8.6,0C59.6,16.4,59.4,16.4,59.2,16.4
				z"/>
		</g>
	</g>
</g>
</svg>
