<?xml version="1.0" encoding="utf-8"?>
<!-- Generator: Adobe Illustrator 19.1.0, SVG Export Plug-In . SVG Version: 6.00 Build 0)  -->
<svg version="1.1" id="Layer_1" xmlns="http://www.w3.org/2000/svg" xmlns:xlink="http://www.w3.org/1999/xlink" x="0px" y="0px"
	 viewBox="0 0 960.5 135.6" style="enable-background:new 0 0 960.5 135.6;" xml:space="preserve">
<style type="text/css">
	.st0{fill-rule:evenodd;clip-rule:evenodd;fill:#B00A32;}
</style>
<polygon class="st0" points="6.7,68.2 32.2,68.2 32.2,107.4 47.9,107.4 47.9,62.6 52.8,62.6 52.8,98.9 70.5,98.9 70.5,70.5 
	96.6,70.5 96.6,124.6 100.2,124.6 100.2,104.8 110,104.8 110,59 127.4,59 127.4,109.1 138.8,109.1 138.8,78.3 156.8,78.3 
	156.8,109.1 156.8,121.2 156.8,124.6 164.3,124.6 164.3,90.7 180.7,90.7 180.7,105.5 190.8,105.5 190.8,62.9 214,62.9 214,109.7 
	234.3,109.7 234.3,58 257.9,58 257.9,102.2 272.9,102.2 272.9,111.9 257.9,111.9 257.9,124.6 290.6,124.6 290.6,17.5 295.5,17.5 
	295.5,16.5 301.7,16.5 301.7,12.9 302.3,12.9 302.3,16.5 316.1,16.5 316.1,17.5 318.4,17.5 318.4,124.6 353.4,124.6 353.4,81.6 
	375.2,81.6 375.2,108.3 395.8,108.3 395.8,124.6 400.2,124.6 400.2,88.8 408.9,88.8 408.9,27 423.8,27 423.8,23.7 432.1,23.7 
	432.1,13.9 434.2,13.9 434.2,0 435.6,0 435.6,13.9 435.6,23.7 435.6,27 439.7,27 439.7,23.7 439.7,13.9 439.7,0 441.2,0 441.2,13.9 
	443.3,13.9 443.3,23.7 451.6,23.7 451.6,27 462.9,27 462.9,124.6 487.2,124.6 487.2,94.4 502.4,94.4 502.4,107.8 520.7,107.8 
	520.7,124.6 556.7,124.6 556.7,66.7 555.6,66.7 555.6,61.5 558.3,61.5 558.3,60 561.6,60 561.6,57.6 570.5,57.6 570.5,56 590.6,56 
	590.6,59.5 589.9,59.5 589.9,61.5 591,61.5 591,66.7 589.7,66.7 589.7,124.6 636.4,124.6 636.4,57.6 656.4,57.6 656.4,124.6 
	664.9,124.6 664.9,93.4 677.4,93.4 677.4,124.6 704.7,124.6 704.7,90.2 713.8,90.2 713.8,124.6 719.5,124.6 719.5,71.6 719.5,53.8 
	739.1,53.8 739.1,71.6 753.6,71.6 753.6,101.9 783.2,101.9 783.2,109 784.4,109 784.4,124.6 790,124.6 790,100.5 796.9,100.5 
	796.9,64.1 809.6,64.1 809.6,124.6 813.7,124.6 813.7,74.4 839.4,74.4 839.4,124.6 858,124.6 858,100.5 862.8,100.5 862.8,73.6 
	880.2,73.6 880.2,100.5 906.6,100.5 906.6,71.7 920.4,71.7 920.4,100.5 922.4,100.5 922.4,113.1 938,113.1 938,124.6 941,124.6 
	941,103.4 951.5,103.4 951.5,111.3 958.1,111.3 958.1,124.6 960.5,124.6 960.5,135.6 0,135.6 0,124.6 6.7,124.6 6.7,68.2 "/>
</svg>
