<?xml version="1.0" encoding="utf-8"?>
<!-- Generator: Adobe Illustrator 19.1.0, SVG Export Plug-In . SVG Version: 6.00 Build 0)  -->
<svg version="1.1" id="Layer_1" xmlns="http://www.w3.org/2000/svg" xmlns:xlink="http://www.w3.org/1999/xlink" x="0px" y="0px"
	 viewBox="0 0 12.4 12.4" style="enable-background:new 0 0 12.4 12.4;" xml:space="preserve">
<style type="text/css">
	.st0{fill-rule:evenodd;clip-rule:evenodd;fill:#540000;}
</style>
<path class="st0" d="M9.9,1.4c-0.2,0-0.5,0-0.7,0c-0.3,0-0.5,0.2-0.5,0.5c0,0.5,0,1,0,1.5c0,0.3,0.2,0.5,0.5,0.5c0.5,0,1,0,1.5,0
	c0.3,0,0.5-0.2,0.5-0.5c0-0.5,0-1,0-1.4c0-0.3-0.2-0.5-0.5-0.5C10.3,1.4,10.1,1.4,9.9,1.4z M8.6,6.2c0-1.3-1.1-2.4-2.4-2.4
	c-1.3,0-2.4,1.1-2.4,2.4c0,1.3,1.1,2.4,2.4,2.4C7.5,8.6,8.6,7.6,8.6,6.2z M1.4,5.3c0,0,0,0.1,0,0.1c0,1.7,0,3.4,0,5.1
	C1.4,10.8,1.6,11,2,11c2.8,0,5.7,0,8.5,0c0.3,0,0.5-0.2,0.5-0.5c0-1.7,0-3.4,0-5.1V5.3H9.9c0.3,1.2,0.1,2.3-0.6,3.2
	C8.6,9.5,7.6,10,6.4,10c-1,0-1.9-0.3-2.7-1c-1.1-1-1.5-2.3-1.2-3.8H1.4z M0,11.2V1.3c0,0,0-0.1,0-0.1c0.1-0.6,0.5-1,1.1-1.1
	c0.1,0,0.1,0,0.2,0h9.9c0,0,0,0,0.1,0c0.6,0.1,1,0.5,1.2,1.1c0,0.1,0,0.1,0,0.2v9.9c0,0,0,0.1,0,0.1c-0.1,0.6-0.5,1-1.1,1.2
	c0,0-0.1,0-0.1,0H1.3c0,0,0,0-0.1,0c-0.6-0.1-1-0.5-1.2-1.1C0,11.3,0,11.2,0,11.2z"/>
</svg>
