<?xml version="1.0" encoding="utf-8"?>
<!-- Generator: Adobe Illustrator 19.1.0, SVG Export Plug-In . SVG Version: 6.00 Build 0)  -->
<svg version="1.1" id="Layer_1" xmlns="http://www.w3.org/2000/svg" xmlns:xlink="http://www.w3.org/1999/xlink" x="0px" y="0px"
	 viewBox="0 0 13.2 13.5" style="enable-background:new 0 0 13.2 13.5;" xml:space="preserve">
<style type="text/css">
	.st0{fill-rule:evenodd;clip-rule:evenodd;fill:#540000;}
</style>
<g>
	<g>
		<g>
			<path class="st0" d="M6.7,2.6c1.3,0,2.1,0.5,2.6,1l1.9-1.9C10.1,0.7,8.6,0,6.7,0c-2.6,0-4.9,1.5-6,3.7l2.2,1.7
				C3.4,3.8,5,2.6,6.7,2.6z"/>
		</g>
		<g>
			<path class="st0" d="M13.2,6.9c0-0.6,0-1-0.1-1.4H6.7V8h3.7c-0.1,0.6-0.5,1.6-1.4,2.2l2.1,1.6C12.5,10.7,13.2,8.9,13.2,6.9z"/>
		</g>
		<g>
			<path class="st0" d="M2.9,8.1C2.8,7.7,2.7,7.2,2.7,6.7s0.1-0.9,0.2-1.3L0.7,3.7C0.3,4.6,0,5.7,0,6.7s0.3,2.1,0.7,3L2.9,8.1z"/>
		</g>
		<g>
			<path class="st0" d="M6.7,13.5c1.8,0,3.3-0.6,4.5-1.6l-2.1-1.6c-0.6,0.4-1.3,0.7-2.3,0.7c-1.8,0-3.3-1.2-3.8-2.8L0.7,9.8
				C1.8,12,4.1,13.5,6.7,13.5z"/>
		</g>
	</g>
</g>
</svg>
