<?xml version="1.0" encoding="utf-8"?>
<!-- Generator: Adobe Illustrator 19.1.0, SVG Export Plug-In . SVG Version: 6.00 Build 0)  -->
<svg version="1.1" id="Layer_1" xmlns="http://www.w3.org/2000/svg" xmlns:xlink="http://www.w3.org/1999/xlink" x="0px" y="0px"
	 viewBox="0 0 170.2 104.8" style="enable-background:new 0 0 170.2 104.8;" xml:space="preserve">
<style type="text/css">
	.st0{fill:#FBDFE8;}
	.st1{fill:#8A0021;}
</style>
<g>
	<path class="st0" d="M50.8,35.2H39c-5.3,9-13.3,17.5-23.6,17.5C7.1,52.7,0,46.7,0,38c0-7.6,5.9-14.7,14.8-14.7
		c7.6,0,11.3,4.3,11.3,9.4c0,1.9-0.9,3.9-2.4,5.4c-1.1,0.8-2.3-0.1-1.2-1.2c1.3-1.2,1.9-2.8,1.9-4.3c0-4.3-3.2-7.8-9.7-7.8
		c-7.9,0-13,6.2-13,13c0,7.7,6.8,13,13.8,13c10.1,0,17.6-8.9,22.7-17.7c6.1-11.5,16.3-22.7,30.6-22.7c2.1,0,3.6,0.4,4.6,1.2
		c1.1,0.7,0.1,2.2-0.9,1.4c-0.7-0.6-1.9-1.1-3.4-1.1c-4.8,0-8.6,6.4-10.5,10.6L47.7,46.1c-1.5,3.2-2.4,9,1.8,9
		c0.3,0,0.7-0.1,1.2-0.2c1.3-0.5,1.2,1.3,0,1.7c-0.5,0.1-0.9,0.2-1.3,0.2c-5.7,0-5.2-7.2-3.2-11.3L50.8,35.2z M39.8,33.7h11.7
		l4.9-10.5c1.9-4.1,4.3-8.1,7.1-10.4C54,14.8,46,22.1,39.8,33.7z"/>
	<path class="st0" d="M66,42.5c-0.4,0.9-0.6,1.7-0.6,2.2c0,1.3,0.8,1.9,2.3,1.9c3.1,0,4.7-3.9,5.2-4.8c0.4-0.8,1.8-0.4,1.4,0.6
		c-0.8,2.1-3.2,5.8-6.6,5.8c-2.1,0-3.5-0.8-3.9-2.6c-1.1,1.3-2.6,2.6-4.5,2.6c-2.5,0-4.2-1.2-4.2-3.6c0-0.9,0.2-1.8,0.7-2.8l4.1-8.8
		c0.7-1.6,2.8-5.7,6.6-5.7c1.7,0,3.1,0.7,3.6,2c3.7-7.9,7.7-14.8,12.5-19.9c-5-3.9-10.1-7.8-18.2-7.8c-9.5,0-12.5,5.4-12.5,8.9
		c0,2.4,1.3,3.4,2.1,4.1c0.3,0.2,0.4,0.4,0.4,0.7c0,0.3-0.2,0.7-0.8,0.7c-0.2,0-0.3-0.1-0.4-0.1c-1.7-0.9-2.9-3-2.9-5.4
		C50.3,6.8,53.2,0,64.8,0c8.7,0,13.9,4.2,18.9,8.3C89,3.1,95,0,102.3,0c8.4,0,12.7,4.2,12.7,8.5c0,4.2-4,9.4-13.5,9.4
		c-7.9,0-12.9-3.6-17.8-7.4C78,16.7,73.6,25.4,70,33.8L66,42.5z M68.4,33.2c0.4-0.9,0.6-1.6,0.6-2.2c0-1.3-1.1-2-2.6-2
		c-2.9,0-4.6,3.6-5.2,5l-4,8.6c-0.4,0.8-0.6,1.7-0.6,2.2c0,1.3,1.1,2,2.6,2c2.5,0,4.2-2.8,4.9-4.3l0.3-0.6L68.4,33.2z M85,9.3
		c4.5,3.6,9.2,6.9,16.6,6.9c7.8,0,11.6-3.8,11.8-7.6c0-3.6-3.6-7.1-11.1-7.1C95.4,1.7,89.7,4.7,85,9.3z"/>
</g>
<g>
	<path class="st1" d="M75.8,48.3c-2.3,0-3.8-1.2-3.8-3.6c0-0.9,0.2-1.8,0.7-2.8L79,28.3c0.4-1.1,2.1-0.5,1.6,0.7l-6.3,13.6
		c-0.4,0.8-0.6,1.7-0.6,2.2c0,1.3,0.8,2,2.1,2c3.2,0,5.6-4.2,6.1-5.4l1.7-3.7c1.3-3,2.8-6.3,1.4-8.6c-0.6-1,0.8-1.8,1.3-1
		c1.9,3,0.2,7.1-1.2,10.1l-1.4,3.2C82.8,43.9,79.7,48.3,75.8,48.3z"/>
	<path class="st1" d="M100.3,32.7c-1.7,4.3-3.9,6.2-7.2,6.2c-1.1,0-2.2-0.3-2.8-0.9l-1,2.2c-1.9,4-0.5,6.6,3.2,6.6
		c3.7,0,6.3-3.2,7.2-4.8c0.4-0.8,1.8-0.4,1.4,0.6c-1.3,2.9-4.7,5.8-8.6,5.8c-4.7,0-7.5-3-4.7-8.8l3-6.3c0.7-1.6,2.7-5.7,6.4-5.7
		C100.3,27.4,101.6,29.7,100.3,32.7z M97.2,29c-2.8,0-4.3,3.6-4.9,5l-1.2,2.5c0.3,0.3,1.3,0.7,2.1,0.7c2.6,0,4.2-1.6,5.4-4.7
		C99.1,31.1,99.6,29,97.2,29z"/>
	<path class="st1" d="M112.4,33.2c0.4-0.8,0.6-1.7,0.6-2.2c0-1.3-1.1-2.1-2.6-2c-2.8,0.2-4.6,3.6-5.2,4.8l-4.1,8.7
		c-0.5,1.1-1.9,0.6-1.4-0.6l6.3-13.7c0.4-0.9,1.8-0.6,1.6,0.4c0.8-0.7,1.8-1.1,2.8-1.2c2.6-0.2,4.2,1.2,4.2,3.6
		c0,0.9-0.2,1.8-0.7,2.8l-4.1,8.7c-0.4,0.9-0.6,1.7-0.6,2.2c0,1.3,0.8,1.9,2.3,1.9c3.1,0,4.7-3.9,5.2-4.8c0.4-0.8,1.8-0.4,1.4,0.6
		c-0.8,2.1-3.2,5.8-6.6,5.8c-2.4,0-3.9-1.1-3.9-3.5c0-0.9,0.2-1.8,0.7-2.9L112.4,33.2z"/>
	<path class="st1" d="M119.3,40.3l-0.6,1.4c-1.2,2.9-2.3,6.2-2.3,9.7c0,3.9,1.4,8.9,7.1,8.9c4.8,0,6.6-3.6,6.6-5.9
		c0-0.8-0.2-1.5-0.5-1.8c-0.9-0.8,0.4-2,1.2-1.2c0.4,0.4,0.9,1.6,0.9,3c0,3.1-2.2,7.6-8.2,7.6c-6.9,0-8.8-5.9-8.8-10.6
		c0-3.7,1.4-7.9,2.4-10.3l0.3-0.8l0.7-0.2L119.3,40.3z M117.4,40.3l8.4-18.4c0.4-1.1,2.1-0.5,1.6,0.7l-8.1,17.8H117.4z M120.9,29.3
		c-1.1,0-0.7-1.6,0.5-1.6h6.5c1.1,0,0.6,1.6-0.5,1.6H120.9z"/>
	<path class="st1" d="M41.5,79.8c0-9.8,9.7-23.2,23.5-23.2c7,0,10.7,4.2,10.7,8.1c0,3.8-3.3,7.6-7.6,7.6c-4.3,0-5.7-2.6-5.7-5
		c0-0.9,0.2-1.8,0.8-2.5c0.7-0.8,1.8-0.1,1.3,0.8c-0.3,0.5-0.5,1.2-0.5,1.8c0,1.7,1.1,3.5,4.3,3.5c3.3,0,6-2.9,6-5.8
		c0-3.4-2.9-7-9.4-7C52.2,58,43,70.4,43,79.7c0,7.4,4.6,14.6,13,14.6c6.8,0,11.5-5.3,11.5-10c0-3-2.1-5.8-5.3-5.8
		c-3.6,0-5,2.2-5.6,3.7c-0.5,1.2-1.9,0.6-1.4-0.6c0.8-2.2,3.1-4.5,7-4.5c4.2,0,6.8,3.3,6.8,7c0,5.4-5.3,11.7-13,11.7
		C47.1,95.7,41.5,88.3,41.5,79.8z"/>
	<path class="st1" d="M79.1,87.5c-1,1.2-2.3,2.3-4.1,2.3c-2.3,0-3.8-1.1-3.8-3.2c0-0.8,0.2-1.6,0.7-2.6l3.7-7.9
		c0.7-1.5,2.6-5.1,6-5.1c1.5,0,2.8,0.7,3.3,1.8l0.5-1.1c0.4-1,1.9-0.5,1.4,0.6l-5.6,12.3c-0.4,0.8-0.6,1.6-0.6,2
		c0,1.2,0.8,1.8,2.1,1.8c2.8,0,4.3-3.5,4.7-4.4c0.4-0.8,1.6-0.4,1.3,0.6c-0.7,1.9-2.9,5.2-5.9,5.2C80.8,89.8,79.5,89.1,79.1,87.5z
		 M79.5,84.6l3.9-8.4c0.4-0.8,0.6-1.5,0.6-2c0-1.2-1-1.8-2.3-1.8c-2.6,0-4.1,3.3-4.7,4.5l-3.6,7.7c-0.4,0.8-0.6,1.5-0.6,2
		c0,1.2,1,1.8,2.3,1.8C77.3,88.4,78.8,85.9,79.5,84.6z"/>
	<path class="st1" d="M88.7,84.7c-0.4,0.8-0.6,1.6-0.6,2c0,1.2,0.8,1.8,2.1,1.8c2.8,0,4.3-3.5,4.7-4.4c0.4-0.8,1.6-0.4,1.3,0.6
		c-0.7,1.9-2.9,5.2-5.9,5.2c-2.2,0-3.6-1-3.6-3.2c0-0.8,0.2-1.7,0.7-2.6l7.8-17c2.7-5.8,6.5-10.3,11.6-10.3c4.3,0,6,2.4,6,4.9
		c0,2.1-1.8,4.8-4.8,4.9c-1.1,0-1.1-1.4,0-1.4c2.2-0.2,3.3-2.1,3.3-3.5c0-1.8-1.2-3.5-4.5-3.5c-3.7,0-7.3,3.1-9.8,8.5L88.7,84.7z"/>
	<path class="st1" d="M107.1,75.8c-1.6,3.9-3.5,5.6-6.5,5.6c-1,0-2-0.3-2.6-0.9l-0.9,2c-1.7,3.6-0.5,6,2.9,6c3.3,0,5.7-2.9,6.5-4.4
		c0.4-0.8,1.7-0.4,1.3,0.6c-1.2,2.7-4.3,5.2-7.8,5.2c-4.2,0-6.8-2.7-4.3-8l2.7-5.7c0.7-1.5,2.5-5.1,5.8-5.1
		C107.1,71,108.2,73.1,107.1,75.8z M104.2,72.4c-2.5,0-3.9,3.3-4.5,4.5l-1.1,2.3c0.3,0.3,1.2,0.6,1.9,0.6c2.4,0,3.8-1.5,4.9-4.3
		C106,74.4,106.4,72.4,104.2,72.4z"/>
	<path class="st1" d="M114.6,97.2c-0.9-1.8-1.4-3.9-1.4-6.1c0-3.5,1.1-7.2,3.2-11.6l1.6-3.4c0.4-0.8,0.6-1.5,0.6-2
		c0-1.2-1-1.9-2.3-1.8c-2.2,0.2-3.7,2.5-4.4,3.8l-3.8,8.4c-0.8,1.6-2.9,5.2-6.1,5.2c-1.1,0-1-1.4,0-1.4c2.5,0,3.9-2.8,4.7-4.4
		l5.7-12.3c0.4-0.9,1.7-0.5,1.5,0.4c0.8-0.6,1.6-1,2.6-1.1c2.3-0.2,3.8,1.1,3.8,3.2c0,0.8-0.2,1.6-0.7,2.6l-1.3,2.8
		c-2,4.2-3.4,8.4-3.4,11.6c0,1.9,0.4,3.7,1.3,5.3c3.9-2.3,7.9-4.3,13-4.3c6,0,8.6,3,8.6,5.8c0,3.2-2.5,6.8-9.6,6.8
		c-5.8,0-10.2-2.6-12.6-6.3c-4.7,2.7-9.3,5.5-15.6,5.5c-5.1,0-7.9-3.6-7.9-6.8c0-2.1,1.1-4,3.3-5c1.3-0.6,1.8,0.9,0.6,1.4
		c-1.7,0.8-2.4,2.2-2.4,3.6c0,2.6,2.3,5.3,6.4,5.3C105.8,102.5,110.2,99.9,114.6,97.2z M116.6,97.7c2.3,3.4,6.3,5.6,11.3,5.6
		c6.1,0,8.1-2.9,8.1-5.3c0-2-2.2-4.3-7.1-4.3C124.2,93.7,120.4,95.5,116.6,97.7z"/>
	<path class="st1" d="M127,87.5c-1,1.2-2.3,2.3-4.1,2.3c-2.3,0-3.8-1.1-3.8-3.2c0-0.8,0.2-1.6,0.7-2.6l3.7-7.9
		c0.7-1.5,2.6-5.1,6-5.1c1.5,0,2.8,0.7,3.3,1.8l5.7-12.3c0.4-1,1.9-0.5,1.4,0.6L129,84.7c-0.4,0.8-0.6,1.6-0.6,2
		c0,1.2,0.8,1.8,2.1,1.8c2.8,0,4.3-3.5,4.7-4.4c0.4-0.8,1.6-0.4,1.3,0.6c-0.7,1.9-2.9,5.2-5.9,5.2C128.6,89.8,127.3,89.1,127,87.5z
		 M131.2,76.2c0.4-0.8,0.6-1.5,0.6-2c0-1.2-1-1.8-2.3-1.8c-2.6,0-4.1,3.3-4.7,4.5l-3.6,7.7c-0.4,0.8-0.6,1.5-0.6,2
		c0,1.2,1,1.8,2.3,1.8c2.3,0,3.8-2.5,4.4-3.9l0.3-0.5L131.2,76.2z"/>
	<path class="st1" d="M142.4,87.5c-1,1.2-2.3,2.3-4.1,2.3c-2.3,0-3.8-1.1-3.8-3.2c0-0.8,0.2-1.6,0.7-2.6l3.7-7.9
		c0.7-1.5,2.6-5.1,6-5.1c1.5,0,2.8,0.7,3.3,1.8l0.5-1.1c0.4-1,1.9-0.5,1.4,0.6l-5.6,12.3c-0.4,0.8-0.6,1.6-0.6,2
		c0,1.2,0.8,1.8,2.1,1.8c2.8,0,4.3-3.5,4.7-4.4c0.4-0.8,1.6-0.4,1.3,0.6c-0.7,1.9-2.9,5.2-5.9,5.2C144,89.8,142.7,89.1,142.4,87.5z
		 M142.7,84.6l3.9-8.4c0.4-0.8,0.6-1.5,0.6-2c0-1.2-1-1.8-2.3-1.8c-2.6,0-4.1,3.3-4.7,4.5l-3.6,7.7c-0.4,0.8-0.6,1.5-0.6,2
		c0,1.2,1,1.8,2.3,1.8C140.6,88.4,142.1,85.9,142.7,84.6z"/>
	<path class="st1" d="M150.5,84.1c2.3-5,4.5-10,5.7-13.9c-2.2-1.4-4.3-2.7-4.3-5.4c0-1.7,1.3-3.5,3.3-3.5c2.4,0,3.4,2,3.4,4.1
		c0,1.2-0.3,2.7-0.7,4.2c1.9,1.2,3.6,2.6,3.6,5.6c0,1.2-0.3,2.5-1,3.9l-2.2,4.7c-1.7,3.5-2.2,5.9-2.2,9c0,3.6,1.5,7.7,6.6,7.7
		c4.4,0,5.9-3.2,5.9-5.4c0-0.8-0.2-1.4-0.5-1.6c-0.9-0.7,0.4-1.8,1.1-1.1c0.4,0.4,0.9,1.5,0.9,2.7c0,2.8-2,6.9-7.4,6.9
		c-6.2,0-8.1-5.1-8.1-9.2c0-3.4,0.9-6.7,2.3-9.6l2.2-4.7c0.6-1.3,0.9-2.5,0.9-3.3c0-2.1-1.2-3.2-2.6-4.2c-1.4,4.5-3.8,9.6-5.7,13.6
		L150.5,84.1z M156.6,68.7c0.3-1.3,0.5-2.4,0.5-3.4c0-1.3-0.6-2.6-2-2.6c-0.9,0-1.7,0.8-1.7,2C153.4,66.5,154.9,67.6,156.6,68.7z"/>
</g>
</svg>
